<mxfile host="app.diagrams.net" modified="2024-03-27T17:57:41.375Z" agent="Mozilla/5.0 (Windows NT 10.0; Win64; x64) AppleWebKit/537.36 (KHTML, like Gecko) Chrome/122.0.0.0 Safari/537.36" etag="2U-JpKEEEwxKm_jDi3aR" version="24.1.0" type="device">
  <diagram name="Page-1" id="_LcW1IXG-ejDCwWv2-nJ">
    <mxGraphModel dx="724" dy="393" grid="1" gridSize="10" guides="1" tooltips="1" connect="1" arrows="1" fold="1" page="1" pageScale="1" pageWidth="1100" pageHeight="850" math="0" shadow="0">
      <root>
        <mxCell id="0" />
        <mxCell id="1" parent="0" />
        <mxCell id="fBKZAk87WcXWiRnp1Xga-21" value="" style="rounded=0;whiteSpace=wrap;html=1;hachureGap=4;fontFamily=Architects Daughter;fontSource=https%3A%2F%2Ffonts.googleapis.com%2Fcss%3Ffamily%3DArchitects%2BDaughter;" vertex="1" parent="1">
          <mxGeometry x="7" y="10" width="353" height="580" as="geometry" />
        </mxCell>
        <mxCell id="fBKZAk87WcXWiRnp1Xga-3" value="&lt;font style=&quot;font-size: 24px;&quot;&gt;&lt;b style=&quot;&quot;&gt;One-To-One&lt;/b&gt;&lt;/font&gt;" style="text;html=1;align=center;verticalAlign=middle;resizable=0;points=[];autosize=1;strokeColor=none;fillColor=none;fontFamily=Architects Daughter;fontSource=https%3A%2F%2Ffonts.googleapis.com%2Fcss%3Ffamily%3DArchitects%2BDaughter;" vertex="1" parent="1">
          <mxGeometry x="10" y="13" width="150" height="40" as="geometry" />
        </mxCell>
        <mxCell id="fBKZAk87WcXWiRnp1Xga-5" value="&lt;font style=&quot;font-size: 14px;&quot;&gt;&lt;b&gt;Uni-directional&lt;/b&gt;&lt;/font&gt;" style="text;html=1;align=center;verticalAlign=middle;resizable=0;points=[];autosize=1;strokeColor=none;fillColor=none;fontFamily=Architects Daughter;fontSource=https%3A%2F%2Ffonts.googleapis.com%2Fcss%3Ffamily%3DArchitects%2BDaughter;" vertex="1" parent="1">
          <mxGeometry x="3" y="158" width="110" height="30" as="geometry" />
        </mxCell>
        <mxCell id="fBKZAk87WcXWiRnp1Xga-12" value="" style="rounded=0;whiteSpace=wrap;html=1;hachureGap=4;fontFamily=Architects Daughter;fontSource=https%3A%2F%2Ffonts.googleapis.com%2Fcss%3Ffamily%3DArchitects%2BDaughter;" vertex="1" parent="1">
          <mxGeometry x="13" y="188" width="160" height="150" as="geometry" />
        </mxCell>
        <mxCell id="fBKZAk87WcXWiRnp1Xga-8" value="&lt;p&gt;&lt;/p&gt;&lt;div style=&quot;&quot;&gt;&lt;font style=&quot;&quot; face=&quot;Helvetica&quot;&gt;&lt;font style=&quot;font-size: 8px;&quot;&gt;&lt;span style=&quot;background-color: initial;&quot;&gt;&lt;font style=&quot;&quot;&gt;@OneToOne(&lt;/font&gt;&lt;/span&gt;&lt;br&gt;&lt;/font&gt;&lt;font style=&quot;font-size: 8px;&quot;&gt;&lt;span style=&quot;background-color: initial; white-space-collapse: preserve;&quot;&gt;&#x9;&lt;/span&gt;&lt;span style=&quot;background-color: initial;&quot;&gt;cascade = &lt;/span&gt;&lt;span style=&quot;background-color: initial;&quot;&gt;casecadeType.All&lt;/span&gt;&lt;/font&gt;&lt;/font&gt;&lt;/div&gt;&lt;div style=&quot;&quot;&gt;&lt;font style=&quot;font-size: 8px;&quot;&gt;&lt;span style=&quot;font-family: Helvetica; white-space-collapse: preserve; background-color: initial;&quot;&gt;&#x9;&lt;/span&gt;&lt;span style=&quot;font-family: Helvetica; background-color: initial;&quot;&gt;fetch = FetchType.EAGER&lt;/span&gt;&lt;/font&gt;&lt;/div&gt;&lt;div style=&quot;&quot;&gt;&lt;font style=&quot;font-size: 8px;&quot;&gt;&lt;span style=&quot;font-family: Helvetica;&quot;&gt;);&lt;/span&gt;&lt;span style=&quot;background-color: initial; font-family: Helvetica;&quot;&gt;&lt;br&gt;&lt;/span&gt;&lt;/font&gt;&lt;/div&gt;&lt;div style=&quot;&quot;&gt;&lt;span style=&quot;background-color: initial; font-family: Helvetica;&quot;&gt;&lt;font style=&quot;font-size: 8px;&quot;&gt;@JoinColumn(&lt;/font&gt;&lt;/span&gt;&lt;/div&gt;&lt;div style=&quot;&quot;&gt;&lt;font style=&quot;&quot; face=&quot;Helvetica&quot;&gt;&lt;font style=&quot;font-size: 8px;&quot;&gt;&lt;span style=&quot;background-color: initial;&quot;&gt;&lt;span style=&quot;white-space: pre;&quot;&gt;&#x9;&lt;/span&gt;name = &quot;foreignkey_column_name&lt;/span&gt;&lt;span style=&quot;background-color: initial;&quot;&gt;&quot;,&lt;/span&gt;&lt;br&gt;&lt;/font&gt;&lt;font style=&quot;font-size: 8px;&quot;&gt;&lt;span style=&quot;background-color: initial;&quot;&gt;&lt;span style=&quot;white-space: pre;&quot;&gt;&#x9;&lt;/span&gt;referenceColumnName&lt;/span&gt;&lt;font style=&quot;background-color: initial;&quot;&gt;=&quot;&lt;font color=&quot;#00cc66&quot;&gt;reference_id&lt;/font&gt;&quot;&lt;/font&gt;&lt;br&gt;&lt;/font&gt;&lt;font style=&quot;font-size: 8px;&quot;&gt;&lt;span style=&quot;background-color: initial;&quot;&gt;);&lt;/span&gt;&lt;br&gt;&lt;/font&gt;&lt;/font&gt;&lt;font style=&quot;font-size: 8px;&quot; face=&quot;Helvetica&quot;&gt;&lt;span style=&quot;background-color: initial;&quot;&gt;private ReferenceType reference&lt;/span&gt;&lt;br&gt;&lt;/font&gt;&lt;br&gt;&lt;/div&gt;&lt;p&gt;&lt;/p&gt;" style="text;html=1;align=left;verticalAlign=middle;resizable=0;points=[];autosize=1;strokeColor=none;fillColor=none;fontFamily=Architects Daughter;fontSource=https%3A%2F%2Ffonts.googleapis.com%2Fcss%3Ffamily%3DArchitects%2BDaughter;" vertex="1" parent="1">
          <mxGeometry x="14" y="170" width="180" height="190" as="geometry" />
        </mxCell>
        <mxCell id="fBKZAk87WcXWiRnp1Xga-13" value="&lt;span style=&quot;color: rgba(0, 0, 0, 0); font-family: monospace; font-size: 0px; text-align: start; text-wrap: nowrap;&quot;&gt;%3CmxGraphModel%3E%3Croot%3E%3CmxCell%20id%3D%220%22%2F%3E%3CmxCell%20id%3D%221%22%20parent%3D%220%22%2F%3E%3CmxCell%20id%3D%222%22%20value%3D%22%26lt%3Bfont%20style%3D%26quot%3Bfont-size%3A%2010px%3B%26quot%3B%20face%3D%26quot%3BHelvetica%26quot%3B%26gt%3B%40id%26lt%3B%2Ffont%26gt%3B%26lt%3Bdiv%26gt%3B%26lt%3Bfont%20style%3D%26quot%3Bfont-size%3A%2010px%3B%26quot%3B%20face%3D%26quot%3BHelvetica%26quot%3B%26gt%3B%40GeneratedValue(strategy%3D...)%26lt%3B%2Ffont%26gt%3B%26lt%3B%2Fdiv%26gt%3B%26lt%3Bdiv%26gt%3B%26lt%3Bfont%20style%3D%26quot%3Bfont-size%3A%2010px%3B%26quot%3B%20face%3D%26quot%3BHelvetica%26quot%3B%26gt%3B%40Column(name%3D%26lt%3Bfont%20color%3D%26quot%3B%2300cc66%26quot%3B%26gt%3B%26lt%3Bb%26gt%3B%26quot%3Bid%26quot%3B%26lt%3B%2Fb%26gt%3B%26lt%3B%2Ffont%26gt%3B)%26lt%3Bbr%26gt%3B%26lt%3B%2Ffont%26gt%3B%26lt%3Bdiv%26gt%3B%26lt%3Bfont%20style%3D%26quot%3Bfont-size%3A%2010px%3B%26quot%3B%20face%3D%26quot%3BHelvetica%26quot%3B%26gt%3Bprivate%20Long%20%26lt%3Bfont%20style%3D%26quot%3B%26quot%3B%20color%3D%26quot%3B%2300cc66%26quot%3B%26gt%3B%26lt%3Bb%20style%3D%26quot%3B%26quot%3B%26gt%3Bid%26lt%3B%2Fb%26gt%3B%26lt%3B%2Ffont%26gt%3B%26lt%3B%2Ffont%26gt%3B%26lt%3B%2Fdiv%26gt%3B%26lt%3B%2Fdiv%26gt%3B%22%20style%3D%22text%3Bhtml%3D1%3Balign%3Dleft%3BverticalAlign%3Dmiddle%3Bresizable%3D0%3Bpoints%3D%5B%5D%3Bautosize%3D1%3BstrokeColor%3Dnone%3BfillColor%3Dnone%3BfontFamily%3DArchitects%20Daughter%3BfontSource%3Dhttps%253A%252F%252Ffonts.googleapis.com%252Fcss%253Ffamily%253DArchitects%252BDaughter%3B%22%20vertex%3D%221%22%20parent%3D%221%22%3E%3CmxGeometry%20x%3D%22202%22%20y%3D%22218%22%20width%3D%22160%22%20height%3D%2270%22%20as%3D%22geometry%22%2F%3E%3C%2FmxCell%3E%3C%2Froot%3E%3C%2FmxGraphModel%3E&lt;/span&gt;" style="rounded=0;whiteSpace=wrap;html=1;hachureGap=4;fontFamily=Architects Daughter;fontSource=https%3A%2F%2Ffonts.googleapis.com%2Fcss%3Ffamily%3DArchitects%2BDaughter;" vertex="1" parent="1">
          <mxGeometry x="202" y="188" width="150" height="150" as="geometry" />
        </mxCell>
        <mxCell id="fBKZAk87WcXWiRnp1Xga-14" style="edgeStyle=orthogonalEdgeStyle;rounded=0;hachureGap=4;orthogonalLoop=1;jettySize=auto;html=1;fontFamily=Architects Daughter;fontSource=https%3A%2F%2Ffonts.googleapis.com%2Fcss%3Ffamily%3DArchitects%2BDaughter;startArrow=ERmandOne;startFill=0;endArrow=ERmandOne;endFill=0;entryX=0.005;entryY=0.451;entryDx=0;entryDy=0;entryPerimeter=0;exitX=1.002;exitY=0.445;exitDx=0;exitDy=0;exitPerimeter=0;" edge="1" parent="1" source="fBKZAk87WcXWiRnp1Xga-12" target="fBKZAk87WcXWiRnp1Xga-13">
          <mxGeometry relative="1" as="geometry">
            <mxPoint x="171" y="285.025641025641" as="sourcePoint" />
            <mxPoint x="256" y="291.19999999999993" as="targetPoint" />
          </mxGeometry>
        </mxCell>
        <mxCell id="fBKZAk87WcXWiRnp1Xga-15" value="&lt;font style=&quot;font-size: 8px;&quot; face=&quot;Helvetica&quot;&gt;@id&lt;/font&gt;&lt;div&gt;&lt;font style=&quot;font-size: 8px;&quot; face=&quot;Helvetica&quot;&gt;@GeneratedValue(strategy=...)&lt;/font&gt;&lt;/div&gt;&lt;div&gt;&lt;font style=&quot;font-size: 8px;&quot; face=&quot;Helvetica&quot;&gt;@Column(name=&lt;font style=&quot;&quot; color=&quot;#00cc66&quot;&gt;&lt;b&gt;&quot;reference_id&quot;&lt;/b&gt;&lt;/font&gt;)&lt;br&gt;&lt;/font&gt;&lt;div&gt;&lt;font style=&quot;font-size: 8px;&quot; face=&quot;Helvetica&quot;&gt;private Long &lt;font style=&quot;&quot; color=&quot;#00cc66&quot;&gt;&lt;b style=&quot;&quot;&gt;referenceId&lt;/b&gt;&lt;/font&gt;&lt;/font&gt;&lt;/div&gt;&lt;/div&gt;" style="text;html=1;align=left;verticalAlign=middle;resizable=0;points=[];autosize=1;strokeColor=none;fillColor=none;fontFamily=Architects Daughter;fontSource=https%3A%2F%2Ffonts.googleapis.com%2Fcss%3Ffamily%3DArchitects%2BDaughter;" vertex="1" parent="1">
          <mxGeometry x="205.5" y="190" width="140" height="70" as="geometry" />
        </mxCell>
        <mxCell id="fBKZAk87WcXWiRnp1Xga-18" value="&lt;div&gt;&lt;font face=&quot;Helvetica&quot;&gt;&lt;br&gt;&lt;/font&gt;&lt;/div&gt;&lt;font face=&quot;Helvetica&quot;&gt;CascadeType - propagates all operations (Insert, delete, update), so if we save data of one table, it will also save the data of an associated table.&amp;nbsp;&lt;/font&gt;&lt;div&gt;&lt;font face=&quot;DI77sC_z4A-Jk6AorHSN&quot;&gt;&lt;span style=&quot;white-space: pre;&quot;&gt;&#x9;&lt;/span&gt;*&amp;nbsp;&lt;b&gt;All&lt;/b&gt;&amp;nbsp;- Includes all operations listed below&lt;br&gt;&lt;span style=&quot;white-space: pre;&quot;&gt;&#x9;&lt;/span&gt;*&amp;nbsp;&lt;b&gt;Detached&lt;/b&gt; - child will also get removed from persistent context&lt;/font&gt;&lt;/div&gt;&lt;div&gt;&lt;font face=&quot;DI77sC_z4A-Jk6AorHSN&quot;&gt;&lt;span style=&quot;white-space: pre;&quot;&gt;&#x9;&lt;/span&gt;*&amp;nbsp;&lt;b&gt;Merge&lt;/b&gt; - Copy entity to persistent context&lt;/font&gt;&lt;/div&gt;&lt;div&gt;&lt;font face=&quot;DI77sC_z4A-Jk6AorHSN&quot;&gt;&lt;span style=&quot;white-space: pre;&quot;&gt;&#x9;&lt;/span&gt;*&amp;nbsp;&lt;b&gt;Persist&lt;/b&gt; - save entity&lt;/font&gt;&lt;/div&gt;&lt;div&gt;&lt;font face=&quot;DI77sC_z4A-Jk6AorHSN&quot;&gt;&lt;span style=&quot;white-space: pre;&quot;&gt;&#x9;&lt;/span&gt;*&amp;nbsp;&lt;b&gt;Refresh&lt;/b&gt; - get entity from DB&lt;span style=&quot;white-space: pre;&quot;&gt;&#x9;&lt;/span&gt;&lt;/font&gt;&lt;/div&gt;&lt;div&gt;&lt;font face=&quot;DI77sC_z4A-Jk6AorHSN&quot;&gt;&lt;span style=&quot;white-space: pre;&quot;&gt;&#x9;&lt;/span&gt;*&amp;nbsp;&lt;b&gt;Remove&lt;/b&gt; - r emove entity from DB&lt;/font&gt;&lt;/div&gt;&lt;div&gt;&lt;font face=&quot;DI77sC_z4A-Jk6AorHSN&quot;&gt;FetchType -&amp;nbsp;&lt;/font&gt;&lt;/div&gt;&lt;div&gt;&lt;font face=&quot;DI77sC_z4A-Jk6AorHSN&quot;&gt;&lt;span style=&quot;white-space: pre;&quot;&gt;&#x9;&lt;/span&gt;*&amp;nbsp;&lt;b&gt;Eager &lt;/b&gt;(default for one-to-one)&amp;nbsp;- Default for one-to-one, when you load data from another table it also fetches from other tables&amp;nbsp;&lt;br&gt;&lt;/font&gt;&lt;/div&gt;&lt;div&gt;&lt;font face=&quot;DI77sC_z4A-Jk6AorHSN&quot;&gt;&lt;span style=&quot;white-space: pre;&quot;&gt;&#x9;&lt;/span&gt;*&amp;nbsp;&lt;b&gt;Lazy &lt;/b&gt;(default for other relationships) - Default for one-to-many and many-to-many&lt;br&gt;&lt;/font&gt;&lt;/div&gt;&lt;div&gt;&lt;font face=&quot;DI77sC_z4A-Jk6AorHSN&quot;&gt;OrphanRemoval&amp;nbsp;&lt;/font&gt;&lt;/div&gt;&lt;div&gt;&lt;font face=&quot;DI77sC_z4A-Jk6AorHSN&quot;&gt;&lt;span style=&quot;white-space: pre;&quot;&gt;&#x9;&lt;/span&gt;* &lt;b&gt;False&lt;/b&gt; (default) - deleting referencing side will not delete owning side&lt;/font&gt;&lt;/div&gt;&lt;div&gt;&lt;font face=&quot;DI77sC_z4A-Jk6AorHSN&quot;&gt;&lt;span style=&quot;white-space: pre;&quot;&gt;&#x9;&lt;/span&gt;* &lt;b&gt;True -&lt;/b&gt;&amp;nbsp; When the referencing side is deleted the owning side is deleted as well&lt;/font&gt;&lt;/div&gt;&lt;div&gt;&lt;font face=&quot;DI77sC_z4A-Jk6AorHSN&quot;&gt;Owning Side - The table that has the foreign key&lt;/font&gt;&lt;/div&gt;&lt;div&gt;&lt;font face=&quot;DI77sC_z4A-Jk6AorHSN&quot;&gt;Reference Side - The table that does not have foreign key and its primary key is being used as the owner side&#39;s foreign key&lt;/font&gt;&lt;/div&gt;&lt;div&gt;&lt;font face=&quot;D8aTwzG_RKU66yjBldHO&quot;&gt;&lt;span style=&quot;white-space: pre;&quot;&gt;&#x9;&lt;/span&gt;&lt;br&gt;&lt;/font&gt;&lt;/div&gt;" style="rounded=0;whiteSpace=wrap;html=1;hachureGap=4;fontFamily=Architects Daughter;fontSource=https%3A%2F%2Ffonts.googleapis.com%2Fcss%3Ffamily%3DArchitects%2BDaughter;align=left;" vertex="1" parent="1">
          <mxGeometry x="6" y="599" width="1080" height="240" as="geometry" />
        </mxCell>
        <mxCell id="fBKZAk87WcXWiRnp1Xga-23" value="&amp;nbsp;" style="rounded=0;whiteSpace=wrap;html=1;hachureGap=4;fontFamily=Architects Daughter;fontSource=https%3A%2F%2Ffonts.googleapis.com%2Fcss%3Ffamily%3DArchitects%2BDaughter;" vertex="1" parent="1">
          <mxGeometry x="373" y="10" width="350" height="580" as="geometry" />
        </mxCell>
        <mxCell id="fBKZAk87WcXWiRnp1Xga-24" value="" style="rounded=0;whiteSpace=wrap;html=1;hachureGap=4;fontFamily=Architects Daughter;fontSource=https%3A%2F%2Ffonts.googleapis.com%2Fcss%3Ffamily%3DArchitects%2BDaughter;" vertex="1" parent="1">
          <mxGeometry x="735" y="9" width="350" height="581" as="geometry" />
        </mxCell>
        <mxCell id="fBKZAk87WcXWiRnp1Xga-25" value="&lt;font style=&quot;font-size: 14px;&quot;&gt;&lt;b&gt;Bi-directional&lt;/b&gt;&lt;/font&gt;" style="text;html=1;align=center;verticalAlign=middle;resizable=0;points=[];autosize=1;strokeColor=none;fillColor=none;fontFamily=Architects Daughter;fontSource=https%3A%2F%2Ffonts.googleapis.com%2Fcss%3Ffamily%3DArchitects%2BDaughter;" vertex="1" parent="1">
          <mxGeometry y="348" width="110" height="30" as="geometry" />
        </mxCell>
        <mxCell id="fBKZAk87WcXWiRnp1Xga-26" value="" style="rounded=0;whiteSpace=wrap;html=1;hachureGap=4;fontFamily=Architects Daughter;fontSource=https%3A%2F%2Ffonts.googleapis.com%2Fcss%3Ffamily%3DArchitects%2BDaughter;" vertex="1" parent="1">
          <mxGeometry x="13" y="378" width="160" height="192" as="geometry" />
        </mxCell>
        <mxCell id="fBKZAk87WcXWiRnp1Xga-27" value="&lt;p&gt;&lt;/p&gt;&lt;div style=&quot;&quot;&gt;&lt;font style=&quot;&quot; face=&quot;Helvetica&quot;&gt;&lt;span style=&quot;background-color: initial;&quot;&gt;&lt;font style=&quot;font-size: 8px;&quot;&gt;@OneToOne(&lt;/font&gt;&lt;/span&gt;&lt;br&gt;&lt;font style=&quot;font-size: 8px;&quot;&gt;&lt;span style=&quot;background-color: initial; white-space-collapse: preserve;&quot;&gt;&#x9;&lt;/span&gt;&lt;span style=&quot;background-color: initial;&quot;&gt;cascade = &lt;/span&gt;&lt;span style=&quot;background-color: initial;&quot;&gt;casecadeType.All&lt;/span&gt;&lt;/font&gt;&lt;/font&gt;&lt;/div&gt;&lt;div style=&quot;&quot;&gt;&lt;font style=&quot;font-size: 8px;&quot;&gt;&lt;span style=&quot;font-family: Helvetica; white-space-collapse: preserve; background-color: initial;&quot;&gt;&#x9;&lt;/span&gt;&lt;span style=&quot;font-family: Helvetica; background-color: initial;&quot;&gt;fetch = FetchType.EAGER&lt;/span&gt;&lt;/font&gt;&lt;/div&gt;&lt;div style=&quot;&quot;&gt;&lt;font style=&quot;font-size: 8px;&quot;&gt;&lt;span style=&quot;font-family: Helvetica;&quot;&gt;);&lt;/span&gt;&lt;span style=&quot;background-color: initial; font-family: Helvetica;&quot;&gt;&lt;br&gt;&lt;/span&gt;&lt;/font&gt;&lt;/div&gt;&lt;div style=&quot;&quot;&gt;&lt;span style=&quot;background-color: initial; font-family: Helvetica;&quot;&gt;&lt;font style=&quot;font-size: 8px;&quot;&gt;@JoinColumn(&lt;/font&gt;&lt;/span&gt;&lt;/div&gt;&lt;div style=&quot;&quot;&gt;&lt;span style=&quot;font-family: Helvetica; font-size: 8px; background-color: initial;&quot;&gt;&lt;span style=&quot;white-space-collapse: preserve;&quot;&gt;&#x9;&lt;/span&gt;name = &quot;foreignkey_column_name&lt;/span&gt;&lt;span style=&quot;font-family: Helvetica; font-size: 8px; background-color: initial;&quot;&gt;&quot;,&lt;/span&gt;&lt;/div&gt;&lt;div style=&quot;&quot;&gt;&lt;font style=&quot;&quot; face=&quot;Helvetica&quot;&gt;&lt;font style=&quot;font-size: 8px;&quot;&gt;&lt;span style=&quot;background-color: initial;&quot;&gt;&lt;span style=&quot;white-space: pre;&quot;&gt;&#x9;&lt;/span&gt;referenceColumnName&lt;/span&gt;&lt;font style=&quot;background-color: initial;&quot;&gt;=&quot;&lt;font color=&quot;#00cc66&quot;&gt;reference_id&lt;/font&gt;&quot;&lt;/font&gt;&lt;/font&gt;&lt;/font&gt;&lt;/div&gt;&lt;div style=&quot;&quot;&gt;&lt;font style=&quot;&quot; face=&quot;Helvetica&quot;&gt;&lt;font style=&quot;font-size: 8px;&quot;&gt;&lt;span style=&quot;white-space: pre;&quot;&gt;&#x9;&lt;/span&gt;foreignKey = @ForeignKey(&lt;/font&gt;&lt;/font&gt;&lt;/div&gt;&lt;div style=&quot;&quot;&gt;&lt;font style=&quot;&quot; face=&quot;Helvetica&quot;&gt;&lt;font style=&quot;font-size: 8px;&quot;&gt;&lt;span style=&quot;white-space: pre;&quot;&gt;&#x9;&lt;/span&gt;&lt;span style=&quot;white-space: pre;&quot;&gt;&#x9;&lt;/span&gt;name = &quot;custum_constraint_name&quot;&lt;/font&gt;&lt;/font&gt;&lt;/div&gt;&lt;div style=&quot;&quot;&gt;&lt;font style=&quot;&quot; face=&quot;Helvetica&quot;&gt;&lt;font style=&quot;font-size: 8px;&quot;&gt;&lt;span style=&quot;white-space: pre;&quot;&gt;&#x9;&lt;/span&gt;)&lt;br&gt;&lt;/font&gt;&lt;font style=&quot;font-size: 8px;&quot;&gt;&lt;span style=&quot;background-color: initial;&quot;&gt;);&lt;/span&gt;&lt;br&gt;&lt;/font&gt;&lt;/font&gt;&lt;font style=&quot;font-size: 8px;&quot; face=&quot;Helvetica&quot;&gt;&lt;span style=&quot;background-color: initial;&quot;&gt;private ReferenceType&amp;nbsp;&lt;font color=&quot;#cc6600&quot;&gt;referenceField&lt;/font&gt;&lt;/span&gt;&lt;br&gt;&lt;/font&gt;&lt;br&gt;&lt;/div&gt;&lt;p&gt;&lt;/p&gt;" style="text;html=1;align=left;verticalAlign=middle;resizable=0;points=[];autosize=1;strokeColor=none;fillColor=none;fontFamily=Architects Daughter;fontSource=https%3A%2F%2Ffonts.googleapis.com%2Fcss%3Ffamily%3DArchitects%2BDaughter;" vertex="1" parent="1">
          <mxGeometry x="11.5" y="360" width="180" height="230" as="geometry" />
        </mxCell>
        <mxCell id="fBKZAk87WcXWiRnp1Xga-28" value="" style="rounded=0;whiteSpace=wrap;html=1;hachureGap=4;fontFamily=Architects Daughter;fontSource=https%3A%2F%2Ffonts.googleapis.com%2Fcss%3Ffamily%3DArchitects%2BDaughter;" vertex="1" parent="1">
          <mxGeometry x="201" y="378" width="151" height="150" as="geometry" />
        </mxCell>
        <mxCell id="fBKZAk87WcXWiRnp1Xga-29" style="edgeStyle=orthogonalEdgeStyle;rounded=0;hachureGap=4;orthogonalLoop=1;jettySize=auto;html=1;fontFamily=Architects Daughter;fontSource=https%3A%2F%2Ffonts.googleapis.com%2Fcss%3Ffamily%3DArchitects%2BDaughter;startArrow=ERmandOne;startFill=0;endArrow=ERmandOne;endFill=0;exitX=1.006;exitY=0.46;exitDx=0;exitDy=0;exitPerimeter=0;" edge="1" parent="1">
          <mxGeometry relative="1" as="geometry">
            <mxPoint x="173.95999999999998" y="453.5" as="sourcePoint" />
            <mxPoint x="200" y="453.5" as="targetPoint" />
            <Array as="points">
              <mxPoint x="180" y="453.5" />
              <mxPoint x="200" y="452.5" />
            </Array>
          </mxGeometry>
        </mxCell>
        <mxCell id="fBKZAk87WcXWiRnp1Xga-30" value="&lt;font style=&quot;font-size: 8px;&quot; face=&quot;Helvetica&quot;&gt;@id&lt;/font&gt;&lt;div&gt;&lt;font style=&quot;font-size: 8px;&quot; face=&quot;Helvetica&quot;&gt;@GeneratedValue(strategy=...)&lt;/font&gt;&lt;/div&gt;&lt;div&gt;&lt;font style=&quot;font-size: 8px;&quot; face=&quot;Helvetica&quot;&gt;@Column(name=&lt;font color=&quot;#00cc66&quot;&gt;&lt;b&gt;&quot;reference_id&quot;&lt;/b&gt;&lt;/font&gt;)&lt;br&gt;&lt;/font&gt;&lt;div&gt;&lt;font style=&quot;font-size: 8px;&quot; face=&quot;Helvetica&quot;&gt;private Long &lt;font style=&quot;&quot; color=&quot;#00cc66&quot;&gt;&lt;b style=&quot;&quot;&gt;referenceId&lt;/b&gt;&lt;/font&gt;&lt;/font&gt;&lt;/div&gt;&lt;/div&gt;&lt;div&gt;&lt;font style=&quot;&quot; face=&quot;Helvetica&quot;&gt;&lt;font style=&quot;font-size: 8px;&quot; color=&quot;#00cc66&quot;&gt;&lt;b style=&quot;&quot;&gt;&lt;br&gt;&lt;/b&gt;&lt;/font&gt;&lt;/font&gt;&lt;/div&gt;&lt;div&gt;&lt;font style=&quot;font-size: 8px;&quot; face=&quot;Helvetica&quot;&gt;@OneToOne(&lt;/font&gt;&lt;/div&gt;&lt;div&gt;&lt;font style=&quot;font-size: 8px;&quot; face=&quot;Helvetica&quot;&gt;&lt;span style=&quot;white-space: pre;&quot;&gt;&#x9;&lt;/span&gt;mappedBy = &quot;&lt;font color=&quot;#cc6600&quot;&gt;referenceField&lt;/font&gt;&quot;,&lt;/font&gt;&lt;/div&gt;&lt;div&gt;&lt;font style=&quot;font-size: 8px;&quot; face=&quot;Helvetica&quot;&gt;&lt;span style=&quot;white-space: pre;&quot;&gt;&#x9;&lt;/span&gt;orphanRemoval=false&lt;br&gt;&lt;/font&gt;&lt;/div&gt;&lt;div&gt;&lt;font style=&quot;font-size: 8px;&quot; face=&quot;Helvetica&quot;&gt;)&lt;/font&gt;&lt;/div&gt;&lt;div&gt;&lt;font style=&quot;font-size: 8px;&quot; face=&quot;Helvetica&quot;&gt;private OwnerType ownerField&lt;/font&gt;&lt;/div&gt;" style="text;html=1;align=left;verticalAlign=middle;resizable=0;points=[];autosize=1;strokeColor=none;fillColor=none;fontFamily=Architects Daughter;fontSource=https%3A%2F%2Ffonts.googleapis.com%2Fcss%3Ffamily%3DArchitects%2BDaughter;" vertex="1" parent="1">
          <mxGeometry x="202.5" y="372" width="150" height="160" as="geometry" />
        </mxCell>
        <mxCell id="fBKZAk87WcXWiRnp1Xga-34" value="&lt;font style=&quot;font-size: 24px;&quot;&gt;&lt;b style=&quot;&quot;&gt;One-To-Many / Many-To-One&lt;/b&gt;&lt;/font&gt;" style="text;html=1;align=center;verticalAlign=middle;resizable=0;points=[];autosize=1;strokeColor=none;fillColor=none;fontFamily=Architects Daughter;fontSource=https%3A%2F%2Ffonts.googleapis.com%2Fcss%3Ffamily%3DArchitects%2BDaughter;" vertex="1" parent="1">
          <mxGeometry x="370" y="10" width="340" height="40" as="geometry" />
        </mxCell>
        <mxCell id="fBKZAk87WcXWiRnp1Xga-47" value="&lt;span style=&quot;color: rgba(0, 0, 0, 0); font-family: monospace; font-size: 0px; text-align: start; text-wrap: nowrap;&quot;&gt;%3CmxGraphModel%3E%3Croot%3E%3CmxCell%20id%3D%220%22%2F%3E%3CmxCell%20id%3D%221%22%20parent%3D%220%22%2F%3E%3CmxCell%20id%3D%222%22%20value%3D%22%26lt%3Bfont%20style%3D%26quot%3Bfont-size%3A%2010px%3B%26quot%3B%20face%3D%26quot%3BHelvetica%26quot%3B%26gt%3B%40id%26lt%3B%2Ffont%26gt%3B%26lt%3Bdiv%26gt%3B%26lt%3Bfont%20style%3D%26quot%3Bfont-size%3A%2010px%3B%26quot%3B%20face%3D%26quot%3BHelvetica%26quot%3B%26gt%3B%40GeneratedValue(strategy%3D...)%26lt%3B%2Ffont%26gt%3B%26lt%3B%2Fdiv%26gt%3B%26lt%3Bdiv%26gt%3B%26lt%3Bfont%20style%3D%26quot%3Bfont-size%3A%2010px%3B%26quot%3B%20face%3D%26quot%3BHelvetica%26quot%3B%26gt%3B%40Column(name%3D%26lt%3Bfont%20color%3D%26quot%3B%2300cc66%26quot%3B%26gt%3B%26lt%3Bb%26gt%3B%26quot%3Bid%26quot%3B%26lt%3B%2Fb%26gt%3B%26lt%3B%2Ffont%26gt%3B)%26lt%3Bbr%26gt%3B%26lt%3B%2Ffont%26gt%3B%26lt%3Bdiv%26gt%3B%26lt%3Bfont%20style%3D%26quot%3Bfont-size%3A%2010px%3B%26quot%3B%20face%3D%26quot%3BHelvetica%26quot%3B%26gt%3Bprivate%20Long%20%26lt%3Bfont%20style%3D%26quot%3B%26quot%3B%20color%3D%26quot%3B%2300cc66%26quot%3B%26gt%3B%26lt%3Bb%20style%3D%26quot%3B%26quot%3B%26gt%3Bid%26lt%3B%2Fb%26gt%3B%26lt%3B%2Ffont%26gt%3B%26lt%3B%2Ffont%26gt%3B%26lt%3B%2Fdiv%26gt%3B%26lt%3B%2Fdiv%26gt%3B%22%20style%3D%22text%3Bhtml%3D1%3Balign%3Dleft%3BverticalAlign%3Dmiddle%3Bresizable%3D0%3Bpoints%3D%5B%5D%3Bautosize%3D1%3BstrokeColor%3Dnone%3BfillColor%3Dnone%3BfontFamily%3DArchitects%20Daughter%3BfontSource%3Dhttps%253A%252F%252Ffonts.googleapis.com%252Fcss%253Ffamily%253DArchitects%252BDaughter%3B%22%20vertex%3D%221%22%20parent%3D%221%22%3E%3CmxGeometry%20x%3D%22202%22%20y%3D%22218%22%20width%3D%22160%22%20height%3D%2270%22%20as%3D%22geometry%22%2F%3E%3C%2FmxCell%3E%3C%2Froot%3E%3C%2FmxGraphModel%3E&lt;/span&gt;" style="rounded=0;whiteSpace=wrap;html=1;hachureGap=4;fontFamily=Architects Daughter;fontSource=https%3A%2F%2Ffonts.googleapis.com%2Fcss%3Ffamily%3DArchitects%2BDaughter;" vertex="1" parent="1">
          <mxGeometry x="570" y="188" width="143" height="150" as="geometry" />
        </mxCell>
        <mxCell id="fBKZAk87WcXWiRnp1Xga-68" style="edgeStyle=orthogonalEdgeStyle;rounded=0;hachureGap=4;orthogonalLoop=1;jettySize=auto;html=1;exitX=1;exitY=0.5;exitDx=0;exitDy=0;entryX=0;entryY=0.5;entryDx=0;entryDy=0;fontFamily=Architects Daughter;fontSource=https%3A%2F%2Ffonts.googleapis.com%2Fcss%3Ffamily%3DArchitects%2BDaughter;startArrow=ERzeroToMany;startFill=0;endArrow=ERmandOne;endFill=0;" edge="1" parent="1" source="fBKZAk87WcXWiRnp1Xga-49" target="fBKZAk87WcXWiRnp1Xga-47">
          <mxGeometry relative="1" as="geometry" />
        </mxCell>
        <mxCell id="fBKZAk87WcXWiRnp1Xga-49" value="&lt;span style=&quot;color: rgba(0, 0, 0, 0); font-family: monospace; font-size: 0px; text-align: start; text-wrap: nowrap;&quot;&gt;%3CmxGraphModel%3E%3Croot%3E%3CmxCell%20id%3D%220%22%2F%3E%3CmxCell%20id%3D%221%22%20parent%3D%220%22%2F%3E%3CmxCell%20id%3D%222%22%20value%3D%22%26lt%3Bfont%20style%3D%26quot%3Bfont-size%3A%2010px%3B%26quot%3B%20face%3D%26quot%3BHelvetica%26quot%3B%26gt%3B%40id%26lt%3B%2Ffont%26gt%3B%26lt%3Bdiv%26gt%3B%26lt%3Bfont%20style%3D%26quot%3Bfont-size%3A%2010px%3B%26quot%3B%20face%3D%26quot%3BHelvetica%26quot%3B%26gt%3B%40GeneratedValue(strategy%3D...)%26lt%3B%2Ffont%26gt%3B%26lt%3B%2Fdiv%26gt%3B%26lt%3Bdiv%26gt%3B%26lt%3Bfont%20style%3D%26quot%3Bfont-size%3A%2010px%3B%26quot%3B%20face%3D%26quot%3BHelvetica%26quot%3B%26gt%3B%40Column(name%3D%26lt%3Bfont%20color%3D%26quot%3B%2300cc66%26quot%3B%26gt%3B%26lt%3Bb%26gt%3B%26quot%3Bid%26quot%3B%26lt%3B%2Fb%26gt%3B%26lt%3B%2Ffont%26gt%3B)%26lt%3Bbr%26gt%3B%26lt%3B%2Ffont%26gt%3B%26lt%3Bdiv%26gt%3B%26lt%3Bfont%20style%3D%26quot%3Bfont-size%3A%2010px%3B%26quot%3B%20face%3D%26quot%3BHelvetica%26quot%3B%26gt%3Bprivate%20Long%20%26lt%3Bfont%20style%3D%26quot%3B%26quot%3B%20color%3D%26quot%3B%2300cc66%26quot%3B%26gt%3B%26lt%3Bb%20style%3D%26quot%3B%26quot%3B%26gt%3Bid%26lt%3B%2Fb%26gt%3B%26lt%3B%2Ffont%26gt%3B%26lt%3B%2Ffont%26gt%3B%26lt%3B%2Fdiv%26gt%3B%26lt%3B%2Fdiv%26gt%3B%22%20style%3D%22text%3Bhtml%3D1%3Balign%3Dleft%3BverticalAlign%3Dmiddle%3Bresizable%3D0%3Bpoints%3D%5B%5D%3Bautosize%3D1%3BstrokeColor%3Dnone%3BfillColor%3Dnone%3BfontFamily%3DArchitects%20Daughter%3BfontSource%3Dhttps%253A%252F%252Ffonts.googleapis.com%252Fcss%253Ffamily%253DArchitects%252BDaughter%3B%22%20vertex%3D%221%22%20parent%3D%221%22%3E%3CmxGeometry%20x%3D%22202%22%20y%3D%22218%22%20width%3D%22160%22%20height%3D%2270%22%20as%3D%22geometry%22%2F%3E%3C%2FmxCell%3E%3C%2Froot%3E%3C%2FmxGraphModel%3E&lt;/span&gt;" style="rounded=0;whiteSpace=wrap;html=1;hachureGap=4;fontFamily=Architects Daughter;fontSource=https%3A%2F%2Ffonts.googleapis.com%2Fcss%3Ffamily%3DArchitects%2BDaughter;" vertex="1" parent="1">
          <mxGeometry x="380" y="188" width="160" height="150" as="geometry" />
        </mxCell>
        <mxCell id="fBKZAk87WcXWiRnp1Xga-43" value="&lt;p&gt;&lt;/p&gt;&lt;div style=&quot;&quot;&gt;&lt;div&gt;&lt;font style=&quot;font-size: 8px;&quot; face=&quot;Helvetica&quot;&gt;&lt;span style=&quot;background-color: initial;&quot;&gt;@ManyToOne&lt;/span&gt;&lt;br&gt;&lt;/font&gt;&lt;/div&gt;&lt;div&gt;&lt;span style=&quot;background-color: initial; font-family: Helvetica;&quot;&gt;&lt;font style=&quot;font-size: 8px;&quot;&gt;@JoinColumn(&lt;/font&gt;&lt;/span&gt;&lt;/div&gt;&lt;div&gt;&lt;font style=&quot;font-size: 8px;&quot; face=&quot;Helvetica&quot;&gt;&lt;span style=&quot;background-color: initial;&quot;&gt;&lt;span style=&quot;white-space-collapse: preserve;&quot;&gt;&#x9;&lt;/span&gt;name = &quot;foreign_column_name&lt;/span&gt;&lt;span style=&quot;background-color: initial;&quot;&gt;&quot;,&lt;/span&gt;&lt;/font&gt;&lt;/div&gt;&lt;div&gt;&lt;font style=&quot;&quot; face=&quot;Helvetica&quot;&gt;&lt;font style=&quot;font-size: 8px;&quot;&gt;&lt;span style=&quot;white-space: pre;&quot;&gt;&#x9;&lt;/span&gt;nullable = false,&lt;br&gt;&lt;/font&gt;&lt;font style=&quot;font-size: 8px;&quot;&gt;&lt;span style=&quot;background-color: initial;&quot;&gt;&lt;span style=&quot;white-space-collapse: preserve;&quot;&gt;&#x9;&lt;/span&gt;referenceColumnName&lt;/span&gt;&lt;font style=&quot;background-color: initial;&quot;&gt;=&quot;&lt;font color=&quot;#00994d&quot;&gt;reference_id&lt;/font&gt;&quot;,&lt;/font&gt;&lt;/font&gt;&lt;/font&gt;&lt;/div&gt;&lt;div&gt;&lt;font style=&quot;&quot; face=&quot;Helvetica&quot;&gt;&lt;font style=&quot;font-size: 8px;&quot;&gt;&lt;span style=&quot;white-space: pre;&quot;&gt;&#x9;&lt;/span&gt;foreignKey = @ForeignKey(&lt;/font&gt;&lt;/font&gt;&lt;/div&gt;&lt;div&gt;&lt;font style=&quot;&quot; face=&quot;Helvetica&quot;&gt;&lt;font style=&quot;font-size: 8px;&quot;&gt;&lt;span style=&quot;white-space: pre;&quot;&gt;&#x9;&lt;/span&gt;&lt;span style=&quot;white-space: pre;&quot;&gt;&#x9;&lt;/span&gt;name = &quot; &quot;&lt;/font&gt;&lt;/font&gt;&lt;/div&gt;&lt;div&gt;&lt;font style=&quot;&quot; face=&quot;Helvetica&quot;&gt;&lt;font style=&quot;font-size: 8px;&quot;&gt;&lt;span style=&quot;white-space: pre;&quot;&gt;&#x9;&lt;/span&gt;)&lt;br&gt;&lt;/font&gt;&lt;font style=&quot;font-size: 8px;&quot;&gt;&lt;span style=&quot;background-color: initial;&quot;&gt;);&lt;/span&gt;&lt;br&gt;&lt;/font&gt;&lt;/font&gt;&lt;font style=&quot;&quot; face=&quot;Helvetica&quot;&gt;&lt;span style=&quot;background-color: initial;&quot;&gt;&lt;font style=&quot;font-size: 8px;&quot;&gt;private ReferenceType reference&lt;/font&gt;&lt;/span&gt;&lt;br&gt;&lt;/font&gt;&lt;/div&gt;&lt;/div&gt;&lt;p&gt;&lt;/p&gt;" style="text;html=1;align=left;verticalAlign=middle;resizable=0;points=[];autosize=1;strokeColor=none;fillColor=none;fontFamily=Architects Daughter;fontSource=https%3A%2F%2Ffonts.googleapis.com%2Fcss%3Ffamily%3DArchitects%2BDaughter;" vertex="1" parent="1">
          <mxGeometry x="380" y="173" width="180" height="180" as="geometry" />
        </mxCell>
        <mxCell id="fBKZAk87WcXWiRnp1Xga-56" value="&lt;font style=&quot;font-size: 8px;&quot; face=&quot;Helvetica&quot;&gt;@id&lt;/font&gt;&lt;div&gt;&lt;font style=&quot;font-size: 8px;&quot; face=&quot;Helvetica&quot;&gt;@GeneratedValue(strategy=...)&lt;/font&gt;&lt;/div&gt;&lt;div&gt;&lt;font style=&quot;font-size: 8px;&quot; face=&quot;Helvetica&quot;&gt;@Column(&lt;/font&gt;&lt;/div&gt;&lt;div&gt;&lt;font style=&quot;font-size: 8px;&quot; face=&quot;Helvetica&quot;&gt;&lt;span style=&quot;white-space: pre;&quot;&gt;&#x9;&lt;/span&gt;name=&lt;font style=&quot;&quot; color=&quot;#00cc66&quot;&gt;&lt;b&gt;&quot;reference_id&quot;&lt;/b&gt;&lt;/font&gt;&lt;/font&gt;&lt;/div&gt;&lt;div&gt;&lt;font style=&quot;font-size: 8px;&quot; face=&quot;Helvetica&quot;&gt;)&lt;br&gt;&lt;/font&gt;&lt;div&gt;&lt;font style=&quot;font-size: 8px;&quot; face=&quot;Helvetica&quot;&gt;private Long &lt;font color=&quot;#00cc66&quot;&gt;&lt;b&gt;referenceId&lt;/b&gt;&lt;/font&gt;&lt;/font&gt;&lt;/div&gt;&lt;/div&gt;" style="text;html=1;align=left;verticalAlign=middle;resizable=0;points=[];autosize=1;strokeColor=none;fillColor=none;fontFamily=Architects Daughter;fontSource=https%3A%2F%2Ffonts.googleapis.com%2Fcss%3Ffamily%3DArchitects%2BDaughter;" vertex="1" parent="1">
          <mxGeometry x="572" y="181" width="130" height="100" as="geometry" />
        </mxCell>
        <mxCell id="fBKZAk87WcXWiRnp1Xga-57" value="&lt;font style=&quot;font-size: 14px;&quot;&gt;&lt;b&gt;Bi-directional&lt;/b&gt;&lt;/font&gt;" style="text;html=1;align=center;verticalAlign=middle;resizable=0;points=[];autosize=1;strokeColor=none;fillColor=none;fontFamily=Architects Daughter;fontSource=https%3A%2F%2Ffonts.googleapis.com%2Fcss%3Ffamily%3DArchitects%2BDaughter;" vertex="1" parent="1">
          <mxGeometry x="370" y="348" width="110" height="30" as="geometry" />
        </mxCell>
        <mxCell id="fBKZAk87WcXWiRnp1Xga-58" value="&lt;font style=&quot;font-size: 14px;&quot;&gt;&lt;b&gt;Uni-directional&lt;/b&gt;&lt;/font&gt;" style="text;html=1;align=center;verticalAlign=middle;resizable=0;points=[];autosize=1;strokeColor=none;fillColor=none;fontFamily=Architects Daughter;fontSource=https%3A%2F%2Ffonts.googleapis.com%2Fcss%3Ffamily%3DArchitects%2BDaughter;" vertex="1" parent="1">
          <mxGeometry x="370" y="158" width="110" height="30" as="geometry" />
        </mxCell>
        <mxCell id="fBKZAk87WcXWiRnp1Xga-69" style="edgeStyle=orthogonalEdgeStyle;rounded=0;hachureGap=4;orthogonalLoop=1;jettySize=auto;html=1;exitX=1;exitY=0.5;exitDx=0;exitDy=0;entryX=0;entryY=0.25;entryDx=0;entryDy=0;fontFamily=Architects Daughter;fontSource=https%3A%2F%2Ffonts.googleapis.com%2Fcss%3Ffamily%3DArchitects%2BDaughter;startArrow=ERzeroToMany;startFill=0;endArrow=ERmandOne;endFill=0;" edge="1" parent="1" source="fBKZAk87WcXWiRnp1Xga-59" target="fBKZAk87WcXWiRnp1Xga-61">
          <mxGeometry relative="1" as="geometry" />
        </mxCell>
        <mxCell id="fBKZAk87WcXWiRnp1Xga-59" value="&lt;span style=&quot;color: rgba(0, 0, 0, 0); font-family: monospace; font-size: 0px; text-align: start; text-wrap: nowrap;&quot;&gt;%3CmxGraphModel%3E%3Croot%3E%3CmxCell%20id%3D%220%22%2F%3E%3CmxCell%20id%3D%221%22%20parent%3D%220%22%2F%3E%3CmxCell%20id%3D%222%22%20value%3D%22%26lt%3Bfont%20style%3D%26quot%3Bfont-size%3A%2010px%3B%26quot%3B%20face%3D%26quot%3BHelvetica%26quot%3B%26gt%3B%40id%26lt%3B%2Ffont%26gt%3B%26lt%3Bdiv%26gt%3B%26lt%3Bfont%20style%3D%26quot%3Bfont-size%3A%2010px%3B%26quot%3B%20face%3D%26quot%3BHelvetica%26quot%3B%26gt%3B%40GeneratedValue(strategy%3D...)%26lt%3B%2Ffont%26gt%3B%26lt%3B%2Fdiv%26gt%3B%26lt%3Bdiv%26gt%3B%26lt%3Bfont%20style%3D%26quot%3Bfont-size%3A%2010px%3B%26quot%3B%20face%3D%26quot%3BHelvetica%26quot%3B%26gt%3B%40Column(name%3D%26lt%3Bfont%20color%3D%26quot%3B%2300cc66%26quot%3B%26gt%3B%26lt%3Bb%26gt%3B%26quot%3Bid%26quot%3B%26lt%3B%2Fb%26gt%3B%26lt%3B%2Ffont%26gt%3B)%26lt%3Bbr%26gt%3B%26lt%3B%2Ffont%26gt%3B%26lt%3Bdiv%26gt%3B%26lt%3Bfont%20style%3D%26quot%3Bfont-size%3A%2010px%3B%26quot%3B%20face%3D%26quot%3BHelvetica%26quot%3B%26gt%3Bprivate%20Long%20%26lt%3Bfont%20style%3D%26quot%3B%26quot%3B%20color%3D%26quot%3B%2300cc66%26quot%3B%26gt%3B%26lt%3Bb%20style%3D%26quot%3B%26quot%3B%26gt%3Bid%26lt%3B%2Fb%26gt%3B%26lt%3B%2Ffont%26gt%3B%26lt%3B%2Ffont%26gt%3B%26lt%3B%2Fdiv%26gt%3B%26lt%3B%2Fdiv%26gt%3B%22%20style%3D%22text%3Bhtml%3D1%3Balign%3Dleft%3BverticalAlign%3Dmiddle%3Bresizable%3D0%3Bpoints%3D%5B%5D%3Bautosize%3D1%3BstrokeColor%3Dnone%3BfillColor%3Dnone%3BfontFamily%3DArchitects%20Daughter%3BfontSource%3Dhttps%253A%252F%252Ffonts.googleapis.com%252Fcss%253Ffamily%253DArchitects%252BDaughter%3B%22%20vertex%3D%221%22%20parent%3D%221%22%3E%3CmxGeometry%20x%3D%22202%22%20y%3D%22218%22%20width%3D%22160%22%20height%3D%2270%22%20as%3D%22geometry%22%2F%3E%3C%2FmxCell%3E%3C%2Froot%3E%3C%2FmxGraphModel%3E&lt;/span&gt;" style="rounded=0;whiteSpace=wrap;html=1;hachureGap=4;fontFamily=Architects Daughter;fontSource=https%3A%2F%2Ffonts.googleapis.com%2Fcss%3Ffamily%3DArchitects%2BDaughter;" vertex="1" parent="1">
          <mxGeometry x="380" y="378" width="160" height="162" as="geometry" />
        </mxCell>
        <mxCell id="fBKZAk87WcXWiRnp1Xga-61" value="&lt;span style=&quot;color: rgba(0, 0, 0, 0); font-family: monospace; font-size: 0px; text-align: start; text-wrap: nowrap;&quot;&gt;%3CmxGraphModel%3E%3Croot%3E%3CmxCell%20id%3D%220%22%2F%3E%3CmxCell%20id%3D%221%22%20parent%3D%220%22%2F%3E%3CmxCell%20id%3D%222%22%20value%3D%22%26lt%3Bfont%20style%3D%26quot%3Bfont-size%3A%2010px%3B%26quot%3B%20face%3D%26quot%3BHelvetica%26quot%3B%26gt%3B%40id%26lt%3B%2Ffont%26gt%3B%26lt%3Bdiv%26gt%3B%26lt%3Bfont%20style%3D%26quot%3Bfont-size%3A%2010px%3B%26quot%3B%20face%3D%26quot%3BHelvetica%26quot%3B%26gt%3B%40GeneratedValue(strategy%3D...)%26lt%3B%2Ffont%26gt%3B%26lt%3B%2Fdiv%26gt%3B%26lt%3Bdiv%26gt%3B%26lt%3Bfont%20style%3D%26quot%3Bfont-size%3A%2010px%3B%26quot%3B%20face%3D%26quot%3BHelvetica%26quot%3B%26gt%3B%40Column(name%3D%26lt%3Bfont%20color%3D%26quot%3B%2300cc66%26quot%3B%26gt%3B%26lt%3Bb%26gt%3B%26quot%3Bid%26quot%3B%26lt%3B%2Fb%26gt%3B%26lt%3B%2Ffont%26gt%3B)%26lt%3Bbr%26gt%3B%26lt%3B%2Ffont%26gt%3B%26lt%3Bdiv%26gt%3B%26lt%3Bfont%20style%3D%26quot%3Bfont-size%3A%2010px%3B%26quot%3B%20face%3D%26quot%3BHelvetica%26quot%3B%26gt%3Bprivate%20Long%20%26lt%3Bfont%20style%3D%26quot%3B%26quot%3B%20color%3D%26quot%3B%2300cc66%26quot%3B%26gt%3B%26lt%3Bb%20style%3D%26quot%3B%26quot%3B%26gt%3Bid%26lt%3B%2Fb%26gt%3B%26lt%3B%2Ffont%26gt%3B%26lt%3B%2Ffont%26gt%3B%26lt%3B%2Fdiv%26gt%3B%26lt%3B%2Fdiv%26gt%3B%22%20style%3D%22text%3Bhtml%3D1%3Balign%3Dleft%3BverticalAlign%3Dmiddle%3Bresizable%3D0%3Bpoints%3D%5B%5D%3Bautosize%3D1%3BstrokeColor%3Dnone%3BfillColor%3Dnone%3BfontFamily%3DArchitects%20Daughter%3BfontSource%3Dhttps%253A%252F%252Ffonts.googleapis.com%252Fcss%253Ffamily%253DArchitects%252BDaughter%3B%22%20vertex%3D%221%22%20parent%3D%221%22%3E%3CmxGeometry%20x%3D%22202%22%20y%3D%22218%22%20width%3D%22160%22%20height%3D%2270%22%20as%3D%22geometry%22%2F%3E%3C%2FmxCell%3E%3C%2Froot%3E%3C%2FmxGraphModel%3E&lt;/span&gt;" style="rounded=0;whiteSpace=wrap;html=1;hachureGap=4;fontFamily=Architects Daughter;fontSource=https%3A%2F%2Ffonts.googleapis.com%2Fcss%3Ffamily%3DArchitects%2BDaughter;" vertex="1" parent="1">
          <mxGeometry x="570" y="377" width="140" height="203" as="geometry" />
        </mxCell>
        <mxCell id="fBKZAk87WcXWiRnp1Xga-63" value="&lt;p&gt;&lt;/p&gt;&lt;div style=&quot;&quot;&gt;&lt;div&gt;&lt;font style=&quot;font-size: 8px;&quot; face=&quot;Helvetica&quot;&gt;&lt;span style=&quot;background-color: initial;&quot;&gt;@ManyToOne&lt;/span&gt;&lt;br&gt;&lt;/font&gt;&lt;/div&gt;&lt;div&gt;&lt;span style=&quot;background-color: initial; font-family: Helvetica;&quot;&gt;&lt;font style=&quot;font-size: 8px;&quot;&gt;@JoinColumn(&lt;/font&gt;&lt;/span&gt;&lt;/div&gt;&lt;div&gt;&lt;font style=&quot;font-size: 8px;&quot; face=&quot;Helvetica&quot;&gt;&lt;span style=&quot;background-color: initial;&quot;&gt;&lt;span style=&quot;white-space-collapse: preserve;&quot;&gt;&#x9;&lt;/span&gt;name = &quot;foreignKey_column_name&lt;/span&gt;&lt;span style=&quot;background-color: initial;&quot;&gt;&quot;,&lt;/span&gt;&lt;/font&gt;&lt;/div&gt;&lt;div&gt;&lt;font style=&quot;&quot; face=&quot;Helvetica&quot;&gt;&lt;font style=&quot;font-size: 8px;&quot;&gt;&lt;span style=&quot;white-space: pre;&quot;&gt;&#x9;&lt;/span&gt;nullable = false,&lt;br&gt;&lt;/font&gt;&lt;font style=&quot;font-size: 8px;&quot;&gt;&lt;span style=&quot;background-color: initial;&quot;&gt;&lt;span style=&quot;white-space-collapse: preserve;&quot;&gt;&#x9;&lt;/span&gt;referenceColumnName&lt;/span&gt;&lt;font style=&quot;background-color: initial;&quot;&gt;=&quot;&lt;font color=&quot;#00cc66&quot;&gt;reference_id&lt;/font&gt;&quot;,&lt;/font&gt;&lt;/font&gt;&lt;/font&gt;&lt;/div&gt;&lt;div&gt;&lt;font style=&quot;&quot; face=&quot;Helvetica&quot;&gt;&lt;font style=&quot;font-size: 8px;&quot;&gt;&lt;span style=&quot;white-space: pre;&quot;&gt;&#x9;&lt;/span&gt;foreignKey = @ForeignKey(&lt;/font&gt;&lt;/font&gt;&lt;/div&gt;&lt;div&gt;&lt;font style=&quot;&quot; face=&quot;Helvetica&quot;&gt;&lt;font style=&quot;font-size: 8px;&quot;&gt;&lt;span style=&quot;white-space: pre;&quot;&gt;&#x9;&lt;/span&gt;&lt;span style=&quot;white-space: pre;&quot;&gt;&#x9;&lt;/span&gt;name = &quot;custum_constraint_name&quot;&lt;/font&gt;&lt;/font&gt;&lt;/div&gt;&lt;div&gt;&lt;font style=&quot;&quot; face=&quot;Helvetica&quot;&gt;&lt;font style=&quot;font-size: 8px;&quot;&gt;&lt;span style=&quot;white-space: pre;&quot;&gt;&#x9;&lt;/span&gt;)&lt;br&gt;&lt;/font&gt;&lt;font style=&quot;font-size: 8px;&quot;&gt;&lt;span style=&quot;background-color: initial;&quot;&gt;);&lt;/span&gt;&lt;br&gt;&lt;/font&gt;&lt;/font&gt;&lt;font style=&quot;&quot; face=&quot;Helvetica&quot;&gt;&lt;span style=&quot;background-color: initial;&quot;&gt;&lt;font style=&quot;font-size: 8px;&quot;&gt;private ReferenceType reference&lt;/font&gt;&lt;/span&gt;&lt;br&gt;&lt;/font&gt;&lt;/div&gt;&lt;/div&gt;&lt;p&gt;&lt;/p&gt;" style="text;html=1;align=left;verticalAlign=middle;resizable=0;points=[];autosize=1;strokeColor=none;fillColor=none;fontFamily=Architects Daughter;fontSource=https%3A%2F%2Ffonts.googleapis.com%2Fcss%3Ffamily%3DArchitects%2BDaughter;" vertex="1" parent="1">
          <mxGeometry x="379" y="360" width="180" height="190" as="geometry" />
        </mxCell>
        <mxCell id="fBKZAk87WcXWiRnp1Xga-64" value="&lt;p style=&quot;&quot;&gt;&lt;font style=&quot;&quot; face=&quot;Helvetica&quot;&gt;&lt;font style=&quot;font-size: 8px;&quot;&gt;@id&lt;br&gt;&lt;/font&gt;&lt;font style=&quot;font-size: 8px;&quot;&gt;@GeneratedValue(strategy=...)&lt;br&gt;&lt;/font&gt;&lt;font style=&quot;font-size: 8px;&quot;&gt;@Column(&lt;br&gt;&lt;/font&gt;&lt;font style=&quot;font-size: 8px;&quot;&gt;&lt;span style=&quot;white-space: pre;&quot;&gt;&#x9;&lt;/span&gt;name=&lt;font style=&quot;&quot; color=&quot;#00cc66&quot;&gt;&lt;b&gt;&quot;reference_id&quot;&lt;br&gt;&lt;/b&gt;&lt;/font&gt;&lt;/font&gt;&lt;font style=&quot;font-size: 8px;&quot;&gt;)&lt;br&gt;&lt;/font&gt;&lt;font style=&quot;font-size: 8px;&quot;&gt;&lt;font style=&quot;&quot;&gt;private Long&amp;nbsp;&lt;font style=&quot;&quot; color=&quot;#00cc66&quot;&gt;&lt;b&gt;id&lt;/b&gt;&lt;/font&gt;&lt;/font&gt;&lt;br&gt;&lt;/font&gt;&lt;font style=&quot;font-size: 8px;&quot;&gt;private List&amp;lt;Book&amp;gt; book&amp;nbsp;&lt;br&gt;&lt;/font&gt;&lt;font style=&quot;font-size: 8px;&quot;&gt;&lt;span style=&quot;white-space: pre;&quot;&gt;&#x9;&lt;/span&gt;= new ArrayList&amp;lt;&amp;gt;()&lt;/font&gt;&lt;br&gt;&lt;font style=&quot;font-size: 8px;&quot;&gt;@OneToMany(&lt;br&gt;&lt;/font&gt;&lt;font style=&quot;font-size: 8px;&quot;&gt;&lt;span style=&quot;white-space: pre;&quot;&gt;&#x9;&lt;/span&gt;mappedBy = &quot;student&quot;&lt;br&gt;&lt;/font&gt;&lt;font style=&quot;font-size: 8px;&quot;&gt;&lt;span style=&quot;white-space: pre;&quot;&gt;&#x9;&lt;/span&gt;orphanRemoval = true/false,&lt;br&gt;&lt;/font&gt;&lt;font style=&quot;font-size: 8px;&quot;&gt;&lt;span style=&quot;white-space: pre;&quot;&gt;&#x9;&lt;/span&gt;cascade = CascadeType.Alll&lt;br&gt;&lt;/font&gt;&lt;font style=&quot;font-size: 8px;&quot;&gt;)&lt;/font&gt;&lt;/font&gt;&lt;/p&gt;&lt;div&gt;&lt;font face=&quot;AxDhw_F7yePOp6T_8kl_&quot;&gt;&lt;br&gt;&lt;/font&gt;&lt;/div&gt;&lt;div&gt;&lt;span style=&quot;color: rgba(0, 0, 0, 0); font-family: monospace; font-size: 0px;&quot;&gt;%3CmxGraphModel%3E%3Croot%3E%3CmxCell%20id%3D%220%22%2F%3E%3CmxCell%20id%3D%221%22%20parent%3D%220%22%2F%3E%3CmxCell%20id%3D%222%22%20value%3D%22%26lt%3Bfont%20style%3D%26quot%3Bfont-size%3A%2010px%3B%26quot%3B%20face%3D%26quot%3BHelvetica%26quot%3B%26gt%3B%40id%26lt%3B%2Ffont%26gt%3B%26lt%3Bdiv%26gt%3B%26lt%3Bfont%20style%3D%26quot%3Bfont-size%3A%2010px%3B%26quot%3B%20face%3D%26quot%3BHelvetica%26quot%3B%26gt%3B%40GeneratedValue(strategy%3D...)%26lt%3B%2Ffont%26gt%3B%26lt%3B%2Fdiv%26gt%3B%26lt%3Bdiv%26gt%3B%26lt%3Bfont%20style%3D%26quot%3Bfont-size%3A%2010px%3B%26quot%3B%20face%3D%26quot%3BHelvetica%26quot%3B%26gt%3B%40Column(name%3D%26lt%3Bfont%20color%3D%26quot%3B%2300cc66%26quot%3B%26gt%3B%26lt%3Bb%26gt%3B%26quot%3Bid%26quot%3B%26lt%3B%2Fb%26gt%3B%26lt%3B%2Ffont%26gt%3B)%26lt%3Bbr%26gt%3B%26lt%3B%2Ffont%26gt%3B%26lt%3Bdiv%26gt%3B%26lt%3Bfont%20style%3D%26quot%3Bfont-size%3A%2010px%3B%26quot%3B%20face%3D%26quot%3BHelvetica%26quot%3B%26gt%3Bprivate%20Long%26amp%3Bnbsp%3B%26lt%3Bfont%20color%3D%26quot%3B%2300cc66%26quot%3B%26gt%3B%26lt%3Bb%26gt%3Bid%26lt%3B%2Fb%26gt%3B%26lt%3B%2Ffont%26gt%3B%26lt%3B%2Ffont%26gt%3B%26lt%3B%2Fdiv%26gt%3B%26lt%3B%2Fdiv%26gt%3B%22%20style%3D%22text%3Bhtml%3D1%3Balign%3Dleft%3BverticalAlign%3Dmiddle%3Bresizable%3D0%3Bpoints%3D%5B%5D%3Bautosize%3D1%3BstrokeColor%3Dnone%3BfillColor%3Dnone%3BfontFamily%3DArchitects%20Daughter%3BfontSource%3Dhttps%253A%252F%252Ffonts.googleapis.com%252Fcss%253Ffamily%253DArchitects%252BDaughter%3B%22%20vertex%3D%221%22%20parent%3D%221%22%3E%3CmxGeometry%20x%3D%22563%22%20y%3D%22218%22%20width%3D%22160%22%20height%3D%2270%22%20as%3D%22geometry%22%2F%3E%3C%2FmxCell%3E%3C%2Froot%3E%3C%2FmxGraphModel%3E&#39;&lt;/span&gt;&lt;br&gt;&lt;/div&gt;&lt;div&gt;&lt;span style=&quot;color: rgba(0, 0, 0, 0); font-family: monospace; font-size: 0px;&quot;&gt;ffffdfddff&lt;/span&gt;&lt;/div&gt;" style="text;html=1;align=left;verticalAlign=middle;resizable=0;points=[];autosize=1;strokeColor=none;fillColor=none;fontFamily=Architects Daughter;fontSource=https%3A%2F%2Ffonts.googleapis.com%2Fcss%3Ffamily%3DArchitects%2BDaughter;" vertex="1" parent="1">
          <mxGeometry x="573" y="360" width="140" height="280" as="geometry" />
        </mxCell>
        <mxCell id="fBKZAk87WcXWiRnp1Xga-70" value="" style="group" vertex="1" connectable="0" parent="1">
          <mxGeometry x="405" y="53" width="290" height="105" as="geometry" />
        </mxCell>
        <mxCell id="fBKZAk87WcXWiRnp1Xga-42" style="edgeStyle=orthogonalEdgeStyle;rounded=0;hachureGap=4;orthogonalLoop=1;jettySize=auto;html=1;exitX=1;exitY=0.5;exitDx=0;exitDy=0;entryX=0;entryY=0.5;entryDx=0;entryDy=0;fontFamily=Architects Daughter;fontSource=https%3A%2F%2Ffonts.googleapis.com%2Fcss%3Ffamily%3DArchitects%2BDaughter;startArrow=ERzeroToMany;startFill=0;endArrow=ERmandOne;endFill=0;" edge="1" parent="fBKZAk87WcXWiRnp1Xga-70" source="fBKZAk87WcXWiRnp1Xga-38" target="fBKZAk87WcXWiRnp1Xga-41">
          <mxGeometry relative="1" as="geometry" />
        </mxCell>
        <mxCell id="fBKZAk87WcXWiRnp1Xga-38" value="" style="whiteSpace=wrap;html=1;aspect=fixed;sketch=1;hachureGap=4;jiggle=2;curveFitting=1;fontFamily=Architects Daughter;fontSource=https%3A%2F%2Ffonts.googleapis.com%2Fcss%3Ffamily%3DArchitects%2BDaughter;fillColor=#fff2cc;strokeColor=#d6b656;" vertex="1" parent="fBKZAk87WcXWiRnp1Xga-70">
          <mxGeometry x="12" y="27" width="50" height="50" as="geometry" />
        </mxCell>
        <mxCell id="fBKZAk87WcXWiRnp1Xga-41" value="" style="whiteSpace=wrap;html=1;aspect=fixed;sketch=1;hachureGap=4;jiggle=2;curveFitting=1;fontFamily=Architects Daughter;fontSource=https%3A%2F%2Ffonts.googleapis.com%2Fcss%3Ffamily%3DArchitects%2BDaughter;fillColor=#d5e8d4;strokeColor=#82b366;" vertex="1" parent="fBKZAk87WcXWiRnp1Xga-70">
          <mxGeometry x="200" y="27" width="50" height="50" as="geometry" />
        </mxCell>
        <mxCell id="fBKZAk87WcXWiRnp1Xga-50" value="Reference" style="text;html=1;align=center;verticalAlign=middle;resizable=0;points=[];autosize=1;strokeColor=none;fillColor=none;fontFamily=Architects Daughter;fontSource=https%3A%2F%2Ffonts.googleapis.com%2Fcss%3Ffamily%3DArchitects%2BDaughter;" vertex="1" parent="fBKZAk87WcXWiRnp1Xga-70">
          <mxGeometry x="180" y="75" width="90" height="30" as="geometry" />
        </mxCell>
        <mxCell id="fBKZAk87WcXWiRnp1Xga-51" value="Owner" style="text;html=1;align=center;verticalAlign=middle;resizable=0;points=[];autosize=1;strokeColor=none;fillColor=none;fontFamily=Architects Daughter;fontSource=https%3A%2F%2Ffonts.googleapis.com%2Fcss%3Ffamily%3DArchitects%2BDaughter;" vertex="1" parent="fBKZAk87WcXWiRnp1Xga-70">
          <mxGeometry x="5" y="75" width="60" height="30" as="geometry" />
        </mxCell>
        <mxCell id="fBKZAk87WcXWiRnp1Xga-71" value="" style="group" vertex="1" connectable="0" parent="1">
          <mxGeometry x="60" y="70" width="252" height="80" as="geometry" />
        </mxCell>
        <mxCell id="fBKZAk87WcXWiRnp1Xga-1" value="" style="whiteSpace=wrap;html=1;aspect=fixed;sketch=1;hachureGap=4;jiggle=2;curveFitting=1;fontFamily=Architects Daughter;fontSource=https%3A%2F%2Ffonts.googleapis.com%2Fcss%3Ffamily%3DArchitects%2BDaughter;fillColor=#d5e8d4;strokeColor=#82b366;" vertex="1" parent="fBKZAk87WcXWiRnp1Xga-71">
          <mxGeometry x="182" width="50" height="50" as="geometry" />
        </mxCell>
        <mxCell id="fBKZAk87WcXWiRnp1Xga-4" style="edgeStyle=orthogonalEdgeStyle;rounded=0;sketch=1;hachureGap=4;jiggle=2;curveFitting=1;orthogonalLoop=1;jettySize=auto;html=1;exitX=1;exitY=0.5;exitDx=0;exitDy=0;fontFamily=Architects Daughter;fontSource=https%3A%2F%2Ffonts.googleapis.com%2Fcss%3Ffamily%3DArchitects%2BDaughter;startArrow=ERmandOne;startFill=0;endArrow=ERmandOne;endFill=0;" edge="1" parent="fBKZAk87WcXWiRnp1Xga-71" source="fBKZAk87WcXWiRnp1Xga-2" target="fBKZAk87WcXWiRnp1Xga-1">
          <mxGeometry relative="1" as="geometry" />
        </mxCell>
        <mxCell id="fBKZAk87WcXWiRnp1Xga-2" value="" style="whiteSpace=wrap;html=1;aspect=fixed;sketch=1;hachureGap=4;jiggle=2;curveFitting=1;fontFamily=Architects Daughter;fontSource=https%3A%2F%2Ffonts.googleapis.com%2Fcss%3Ffamily%3DArchitects%2BDaughter;fillColor=#fff2cc;strokeColor=#d6b656;" vertex="1" parent="fBKZAk87WcXWiRnp1Xga-71">
          <mxGeometry x="2" width="50" height="50" as="geometry" />
        </mxCell>
        <mxCell id="fBKZAk87WcXWiRnp1Xga-32" value="Owner" style="text;html=1;align=center;verticalAlign=middle;resizable=0;points=[];autosize=1;strokeColor=none;fillColor=none;fontFamily=Architects Daughter;fontSource=https%3A%2F%2Ffonts.googleapis.com%2Fcss%3Ffamily%3DArchitects%2BDaughter;" vertex="1" parent="fBKZAk87WcXWiRnp1Xga-71">
          <mxGeometry y="50" width="60" height="30" as="geometry" />
        </mxCell>
        <mxCell id="fBKZAk87WcXWiRnp1Xga-33" value="Reference" style="text;html=1;align=center;verticalAlign=middle;resizable=0;points=[];autosize=1;strokeColor=none;fillColor=none;fontFamily=Architects Daughter;fontSource=https%3A%2F%2Ffonts.googleapis.com%2Fcss%3Ffamily%3DArchitects%2BDaughter;" vertex="1" parent="fBKZAk87WcXWiRnp1Xga-71">
          <mxGeometry x="162" y="50" width="90" height="30" as="geometry" />
        </mxCell>
      </root>
    </mxGraphModel>
  </diagram>
</mxfile>
